<?xml version="1.0" encoding="UTF-8" standalone="no"?>
<!DOCTYPE svg PUBLIC "-//W3C//DTD SVG 1.1//EN"
 "http://www.w3.org/Graphics/SVG/1.1/DTD/svg11.dtd">
<!-- Generated by graphviz version 2.36.0 (20140111.2315)
 -->
<!-- Title: controllers_diagram Pages: 1 -->
<svg width="494pt" height="447pt"
 viewBox="0.00 0.00 494.00 447.00" xmlns="http://www.w3.org/2000/svg" xmlns:xlink="http://www.w3.org/1999/xlink">
<g id="graph0" class="graph" transform="scale(1 1) rotate(0) translate(4 443)">
<title>controllers_diagram</title>
<polygon fill="none" stroke="none" points="-4,4 -4,-443 490,-443 490,4 -4,4"/>
<!-- _diagram_info -->
<g id="node1" class="node"><title>_diagram_info</title>
<text text-anchor="start" x="53" y="-183.6" font-family="Times,serif" font-size="13.00">Controllers diagram</text>
<text text-anchor="start" x="53" y="-169.6" font-family="Times,serif" font-size="13.00">Date: May 22 2018 &#45; 08:09</text>
<text text-anchor="start" x="53" y="-155.6" font-family="Times,serif" font-size="13.00">Migration version: 20180521163048</text>
<text text-anchor="start" x="53" y="-141.6" font-family="Times,serif" font-size="13.00">Generated by RailRoady 1.5.3</text>
<text text-anchor="start" x="53" y="-127.6" font-family="Times,serif" font-size="13.00">http://railroady.prestonlee.com</text>
</g>
<!-- PagesController -->
<g id="node2" class="node"><title>PagesController</title>
<path fill="none" stroke="black" d="M297,-45.5C297,-45.5 377,-45.5 377,-45.5 383,-45.5 389,-51.5 389,-57.5 389,-57.5 389,-171.5 389,-171.5 389,-177.5 383,-183.5 377,-183.5 377,-183.5 297,-183.5 297,-183.5 291,-183.5 285,-177.5 285,-171.5 285,-171.5 285,-57.5 285,-57.5 285,-51.5 291,-45.5 297,-45.5"/>
<text text-anchor="middle" x="337" y="-168.3" font-family="Times,serif" font-size="14.00">PagesController</text>
<polyline fill="none" stroke="black" points="285,-160.5 389,-160.5 "/>
<text text-anchor="start" x="293" y="-145.3" font-family="Times,serif" font-size="14.00">connect</text>
<text text-anchor="start" x="293" y="-130.3" font-family="Times,serif" font-size="14.00">home</text>
<text text-anchor="start" x="293" y="-115.3" font-family="Times,serif" font-size="14.00">index</text>
<text text-anchor="start" x="293" y="-100.3" font-family="Times,serif" font-size="14.00">profile</text>
<polyline fill="none" stroke="black" points="285,-92.5 389,-92.5 "/>
<polyline fill="none" stroke="black" points="285,-68.5 389,-68.5 "/>
<text text-anchor="start" x="293" y="-53.3" font-family="Times,serif" font-size="14.00">_layout</text>
</g>
<!-- ApplicationController -->
<g id="node3" class="node"><title>ApplicationController</title>
<path fill="none" stroke="black" d="M12,-0.5C12,-0.5 124,-0.5 124,-0.5 130,-0.5 136,-6.5 136,-12.5 136,-12.5 136,-81.5 136,-81.5 136,-87.5 130,-93.5 124,-93.5 124,-93.5 12,-93.5 12,-93.5 6,-93.5 0,-87.5 0,-81.5 0,-81.5 0,-12.5 0,-12.5 0,-6.5 6,-0.5 12,-0.5"/>
<text text-anchor="middle" x="68" y="-78.3" font-family="Times,serif" font-size="14.00">ApplicationController</text>
<polyline fill="none" stroke="black" points="0,-70.5 136,-70.5 "/>
<polyline fill="none" stroke="black" points="0,-46.5 136,-46.5 "/>
<text text-anchor="start" x="8" y="-31.3" font-family="Times,serif" font-size="14.00">permitted_parameters</text>
<polyline fill="none" stroke="black" points="0,-23.5 136,-23.5 "/>
<text text-anchor="start" x="8" y="-8.3" font-family="Times,serif" font-size="14.00">_layout</text>
</g>
<!-- LikesController -->
<g id="node4" class="node"><title>LikesController</title>
<path fill="none" stroke="black" d="M102,-240.5C102,-240.5 180,-240.5 180,-240.5 186,-240.5 192,-246.5 192,-252.5 192,-252.5 192,-381.5 192,-381.5 192,-387.5 186,-393.5 180,-393.5 180,-393.5 102,-393.5 102,-393.5 96,-393.5 90,-387.5 90,-381.5 90,-381.5 90,-252.5 90,-252.5 90,-246.5 96,-240.5 102,-240.5"/>
<text text-anchor="middle" x="141" y="-378.3" font-family="Times,serif" font-size="14.00">LikesController</text>
<polyline fill="none" stroke="black" points="90,-370.5 192,-370.5 "/>
<text text-anchor="start" x="98" y="-355.3" font-family="Times,serif" font-size="14.00">create</text>
<text text-anchor="start" x="98" y="-340.3" font-family="Times,serif" font-size="14.00">destroy</text>
<polyline fill="none" stroke="black" points="90,-332.5 192,-332.5 "/>
<polyline fill="none" stroke="black" points="90,-308.5 192,-308.5 "/>
<text text-anchor="start" x="98" y="-293.3" font-family="Times,serif" font-size="14.00">_layout</text>
<text text-anchor="start" x="98" y="-278.3" font-family="Times,serif" font-size="14.00">already_liked?</text>
<text text-anchor="start" x="98" y="-263.3" font-family="Times,serif" font-size="14.00">find_like</text>
<text text-anchor="start" x="98" y="-248.3" font-family="Times,serif" font-size="14.00">find_post</text>
</g>
<!-- PostsController -->
<g id="node5" class="node"><title>PostsController</title>
<path fill="none" stroke="black" d="M237,-225.5C237,-225.5 314,-225.5 314,-225.5 320,-225.5 326,-231.5 326,-237.5 326,-237.5 326,-396.5 326,-396.5 326,-402.5 320,-408.5 314,-408.5 314,-408.5 237,-408.5 237,-408.5 231,-408.5 225,-402.5 225,-396.5 225,-396.5 225,-237.5 225,-237.5 225,-231.5 231,-225.5 237,-225.5"/>
<text text-anchor="middle" x="275.5" y="-393.3" font-family="Times,serif" font-size="14.00">PostsController</text>
<polyline fill="none" stroke="black" points="225,-385.5 326,-385.5 "/>
<text text-anchor="start" x="233" y="-370.3" font-family="Times,serif" font-size="14.00">create</text>
<text text-anchor="start" x="233" y="-355.3" font-family="Times,serif" font-size="14.00">destroy</text>
<text text-anchor="start" x="233" y="-340.3" font-family="Times,serif" font-size="14.00">download_pdf</text>
<text text-anchor="start" x="233" y="-325.3" font-family="Times,serif" font-size="14.00">index</text>
<text text-anchor="start" x="233" y="-310.3" font-family="Times,serif" font-size="14.00">new</text>
<text text-anchor="start" x="233" y="-295.3" font-family="Times,serif" font-size="14.00">show</text>
<polyline fill="none" stroke="black" points="225,-287.5 326,-287.5 "/>
<polyline fill="none" stroke="black" points="225,-263.5 326,-263.5 "/>
<text text-anchor="start" x="233" y="-248.3" font-family="Times,serif" font-size="14.00">_layout</text>
<text text-anchor="start" x="233" y="-233.3" font-family="Times,serif" font-size="14.00">post_params</text>
</g>
<!-- FollowersController -->
<g id="node6" class="node"><title>FollowersController</title>
<path fill="none" stroke="black" d="M372,-210.5C372,-210.5 474,-210.5 474,-210.5 480,-210.5 486,-216.5 486,-222.5 486,-222.5 486,-306.5 486,-306.5 486,-312.5 480,-318.5 474,-318.5 474,-318.5 372,-318.5 372,-318.5 366,-318.5 360,-312.5 360,-306.5 360,-306.5 360,-222.5 360,-222.5 360,-216.5 366,-210.5 372,-210.5"/>
<text text-anchor="middle" x="423" y="-303.3" font-family="Times,serif" font-size="14.00">FollowersController</text>
<polyline fill="none" stroke="black" points="360,-295.5 486,-295.5 "/>
<text text-anchor="start" x="368" y="-280.3" font-family="Times,serif" font-size="14.00">create</text>
<text text-anchor="start" x="368" y="-265.3" font-family="Times,serif" font-size="14.00">destroy</text>
<polyline fill="none" stroke="black" points="360,-257.5 486,-257.5 "/>
<polyline fill="none" stroke="black" points="360,-233.5 486,-233.5 "/>
<text text-anchor="start" x="368" y="-218.3" font-family="Times,serif" font-size="14.00">_layout</text>
</g>
<!-- UsersController -->
<g id="node7" class="node"><title>UsersController</title>
<path fill="none" stroke="black" d="M372,-345.5C372,-345.5 451,-345.5 451,-345.5 457,-345.5 463,-351.5 463,-357.5 463,-357.5 463,-426.5 463,-426.5 463,-432.5 457,-438.5 451,-438.5 451,-438.5 372,-438.5 372,-438.5 366,-438.5 360,-432.5 360,-426.5 360,-426.5 360,-357.5 360,-357.5 360,-351.5 366,-345.5 372,-345.5"/>
<text text-anchor="middle" x="411.5" y="-423.3" font-family="Times,serif" font-size="14.00">UsersController</text>
<polyline fill="none" stroke="black" points="360,-415.5 463,-415.5 "/>
<text text-anchor="start" x="368" y="-400.3" font-family="Times,serif" font-size="14.00">index</text>
<polyline fill="none" stroke="black" points="360,-392.5 463,-392.5 "/>
<polyline fill="none" stroke="black" points="360,-368.5 463,-368.5 "/>
<text text-anchor="start" x="368" y="-353.3" font-family="Times,serif" font-size="14.00">_layout</text>
</g>
</g>
</svg>
