<?xml version="1.0" encoding="UTF-8" standalone="no"?>
<!DOCTYPE svg PUBLIC "-//W3C//DTD SVG 1.1//EN"
 "http://www.w3.org/Graphics/SVG/1.1/DTD/svg11.dtd">
<!-- Generated by graphviz version 2.36.0 (20140111.2315)
 -->
<!-- Title: models_diagram Pages: 1 -->
<svg width="581pt" height="736pt"
 viewBox="0.00 0.00 581.00 736.00" xmlns="http://www.w3.org/2000/svg" xmlns:xlink="http://www.w3.org/1999/xlink">
<g id="graph0" class="graph" transform="scale(1 1) rotate(0) translate(4 732)">
<title>models_diagram</title>
<polygon fill="none" stroke="none" points="-4,4 -4,-732 577,-732 577,4 -4,4"/>
<!-- _diagram_info -->
<g id="node1" class="node"><title>_diagram_info</title>
<text text-anchor="start" x="8" y="-601.6" font-family="Times,serif" font-size="13.00">Models diagram</text>
<text text-anchor="start" x="8" y="-587.6" font-family="Times,serif" font-size="13.00">Date: May 22 2018 &#45; 08:09</text>
<text text-anchor="start" x="8" y="-573.6" font-family="Times,serif" font-size="13.00">Migration version: 20180521163048</text>
<text text-anchor="start" x="8" y="-559.6" font-family="Times,serif" font-size="13.00">Generated by RailRoady 1.5.3</text>
<text text-anchor="start" x="8" y="-545.6" font-family="Times,serif" font-size="13.00">http://railroady.prestonlee.com</text>
</g>
<!-- Like -->
<g id="node2" class="node"><title>Like</title>
<path fill="none" stroke="black" d="M172.5,-1C172.5,-1 279.5,-1 279.5,-1 285.5,-1 291.5,-7 291.5,-13 291.5,-13 291.5,-95 291.5,-95 291.5,-101 285.5,-107 279.5,-107 279.5,-107 172.5,-107 172.5,-107 166.5,-107 160.5,-101 160.5,-95 160.5,-95 160.5,-13 160.5,-13 160.5,-7 166.5,-1 172.5,-1"/>
<text text-anchor="middle" x="226" y="-91.8" font-family="Times,serif" font-size="14.00">Like</text>
<polyline fill="none" stroke="black" points="160.5,-84 291.5,-84 "/>
<text text-anchor="start" x="168.5" y="-68.8" font-family="Times,serif" font-size="14.00">id :INTEGER</text>
<text text-anchor="start" x="168.5" y="-53.8" font-family="Times,serif" font-size="14.00">post_id :integer</text>
<text text-anchor="start" x="168.5" y="-38.8" font-family="Times,serif" font-size="14.00">user_id :integer</text>
<text text-anchor="start" x="168.5" y="-23.8" font-family="Times,serif" font-size="14.00">created_at :datetime</text>
<text text-anchor="start" x="168.5" y="-8.8" font-family="Times,serif" font-size="14.00">updated_at :datetime</text>
</g>
<!-- Post -->
<g id="node3" class="node"><title>Post</title>
<path fill="none" stroke="black" d="M230,-147C230,-147 388,-147 388,-147 394,-147 400,-153 400,-159 400,-159 400,-361 400,-361 400,-367 394,-373 388,-373 388,-373 230,-373 230,-373 224,-373 218,-367 218,-361 218,-361 218,-159 218,-159 218,-153 224,-147 230,-147"/>
<text text-anchor="middle" x="309" y="-357.8" font-family="Times,serif" font-size="14.00">Post</text>
<polyline fill="none" stroke="black" points="218,-350 400,-350 "/>
<text text-anchor="start" x="226" y="-334.8" font-family="Times,serif" font-size="14.00">id :INTEGER</text>
<text text-anchor="start" x="226" y="-319.8" font-family="Times,serif" font-size="14.00">content :text</text>
<text text-anchor="start" x="226" y="-304.8" font-family="Times,serif" font-size="14.00">user_id :integer</text>
<text text-anchor="start" x="226" y="-289.8" font-family="Times,serif" font-size="14.00">created_at :datetime</text>
<text text-anchor="start" x="226" y="-274.8" font-family="Times,serif" font-size="14.00">updated_at :datetime</text>
<text text-anchor="start" x="226" y="-259.8" font-family="Times,serif" font-size="14.00">image_file_name :varchar</text>
<text text-anchor="start" x="226" y="-244.8" font-family="Times,serif" font-size="14.00">image_content_type :varchar</text>
<text text-anchor="start" x="226" y="-229.8" font-family="Times,serif" font-size="14.00">image_file_size :integer</text>
<text text-anchor="start" x="226" y="-214.8" font-family="Times,serif" font-size="14.00">image_updated_at :datetime</text>
<text text-anchor="start" x="226" y="-199.8" font-family="Times,serif" font-size="14.00">image2_file_name :varchar</text>
<text text-anchor="start" x="226" y="-184.8" font-family="Times,serif" font-size="14.00">image2_content_type :varchar</text>
<text text-anchor="start" x="226" y="-169.8" font-family="Times,serif" font-size="14.00">image2_file_size :integer</text>
<text text-anchor="start" x="226" y="-154.8" font-family="Times,serif" font-size="14.00">image2_updated_at :datetime</text>
</g>
<!-- Post&#45;&gt;Like -->
<g id="edge1" class="edge"><title>Post&#45;&gt;Like</title>
<path fill="none" stroke="#e15409" d="M260.25,-139.18C257.164,-131.597 254.134,-124.15 251.231,-117.013"/>
<ellipse fill="none" stroke="#e15409" cx="261.865" cy="-143.15" rx="4.00001" ry="4.00001"/>
<polygon fill="#e15409" stroke="#e15409" points="251.125,-116.752 251.524,-105.794 249.24,-112.121 247.356,-107.49 247.356,-107.49 247.356,-107.49 249.24,-112.121 243.188,-109.185 251.125,-116.752 251.125,-116.752"/>
</g>
<!-- Follower -->
<g id="node4" class="node"><title>Follower</title>
<path fill="none" stroke="black" d="M430.5,-207C430.5,-207 537.5,-207 537.5,-207 543.5,-207 549.5,-213 549.5,-219 549.5,-219 549.5,-301 549.5,-301 549.5,-307 543.5,-313 537.5,-313 537.5,-313 430.5,-313 430.5,-313 424.5,-313 418.5,-307 418.5,-301 418.5,-301 418.5,-219 418.5,-219 418.5,-213 424.5,-207 430.5,-207"/>
<text text-anchor="middle" x="484" y="-297.8" font-family="Times,serif" font-size="14.00">Follower</text>
<polyline fill="none" stroke="black" points="418.5,-290 549.5,-290 "/>
<text text-anchor="start" x="426.5" y="-274.8" font-family="Times,serif" font-size="14.00">id :INTEGER</text>
<text text-anchor="start" x="426.5" y="-259.8" font-family="Times,serif" font-size="14.00">follower_id :integer</text>
<text text-anchor="start" x="426.5" y="-244.8" font-family="Times,serif" font-size="14.00">followed_id :integer</text>
<text text-anchor="start" x="426.5" y="-229.8" font-family="Times,serif" font-size="14.00">created_at :datetime</text>
<text text-anchor="start" x="426.5" y="-214.8" font-family="Times,serif" font-size="14.00">updated_at :datetime</text>
</g>
<!-- User -->
<g id="node5" class="node"><title>User</title>
<path fill="none" stroke="black" d="M244,-426.5C244,-426.5 420,-426.5 420,-426.5 426,-426.5 432,-432.5 432,-438.5 432,-438.5 432,-715.5 432,-715.5 432,-721.5 426,-727.5 420,-727.5 420,-727.5 244,-727.5 244,-727.5 238,-727.5 232,-721.5 232,-715.5 232,-715.5 232,-438.5 232,-438.5 232,-432.5 238,-426.5 244,-426.5"/>
<text text-anchor="middle" x="332" y="-712.3" font-family="Times,serif" font-size="14.00">User</text>
<polyline fill="none" stroke="black" points="232,-704.5 432,-704.5 "/>
<text text-anchor="start" x="240" y="-689.3" font-family="Times,serif" font-size="14.00">id :INTEGER</text>
<text text-anchor="start" x="240" y="-674.3" font-family="Times,serif" font-size="14.00">email :varchar</text>
<text text-anchor="start" x="240" y="-659.3" font-family="Times,serif" font-size="14.00">encrypted_password :varchar</text>
<text text-anchor="start" x="240" y="-644.3" font-family="Times,serif" font-size="14.00">reset_password_token :varchar</text>
<text text-anchor="start" x="240" y="-629.3" font-family="Times,serif" font-size="14.00">reset_password_sent_at :datetime</text>
<text text-anchor="start" x="240" y="-614.3" font-family="Times,serif" font-size="14.00">remember_created_at :datetime</text>
<text text-anchor="start" x="240" y="-599.3" font-family="Times,serif" font-size="14.00">sign_in_count :integer</text>
<text text-anchor="start" x="240" y="-584.3" font-family="Times,serif" font-size="14.00">current_sign_in_at :datetime</text>
<text text-anchor="start" x="240" y="-569.3" font-family="Times,serif" font-size="14.00">last_sign_in_at :datetime</text>
<text text-anchor="start" x="240" y="-554.3" font-family="Times,serif" font-size="14.00">current_sign_in_ip :varchar</text>
<text text-anchor="start" x="240" y="-539.3" font-family="Times,serif" font-size="14.00">last_sign_in_ip :varchar</text>
<text text-anchor="start" x="240" y="-524.3" font-family="Times,serif" font-size="14.00">created_at :datetime</text>
<text text-anchor="start" x="240" y="-509.3" font-family="Times,serif" font-size="14.00">updated_at :datetime</text>
<text text-anchor="start" x="240" y="-494.3" font-family="Times,serif" font-size="14.00">username :varchar</text>
<text text-anchor="start" x="240" y="-479.3" font-family="Times,serif" font-size="14.00">profilepic_file_name :varchar</text>
<text text-anchor="start" x="240" y="-464.3" font-family="Times,serif" font-size="14.00">profilepic_content_type :varchar</text>
<text text-anchor="start" x="240" y="-449.3" font-family="Times,serif" font-size="14.00">profilepic_file_size :integer</text>
<text text-anchor="start" x="240" y="-434.3" font-family="Times,serif" font-size="14.00">profilepic_updated_at :datetime</text>
</g>
<!-- User&#45;&gt;Like -->
<g id="edge3" class="edge"><title>User&#45;&gt;Like</title>
<path fill="none" stroke="#ef9c56" d="M228.225,-424.652C220.449,-408.1 213.784,-391.056 209,-374 184.723,-287.45 198.001,-182.625 211.011,-117.358"/>
<ellipse fill="none" stroke="#ef9c56" cx="230.136" cy="-428.617" rx="4.00002" ry="4.00002"/>
<polygon fill="#ef9c56" stroke="#ef9c56" points="211.079,-117.027 217.499,-108.137 212.085,-112.129 213.091,-107.231 213.091,-107.231 213.091,-107.231 212.085,-112.129 208.683,-106.326 211.079,-117.027 211.079,-117.027"/>
</g>
<!-- User&#45;&gt;Post -->
<g id="edge2" class="edge"><title>User&#45;&gt;Post</title>
<path fill="none" stroke="#522872" d="M320.489,-418.348C319.625,-406.52 318.762,-394.694 317.918,-383.136"/>
<ellipse fill="none" stroke="#522872" cx="320.781" cy="-422.352" rx="4" ry="4"/>
<polygon fill="#522872" stroke="#522872" points="317.91,-383.028 321.67,-372.727 317.546,-378.041 317.182,-373.054 317.182,-373.054 317.182,-373.054 317.546,-378.041 312.694,-373.382 317.91,-383.028 317.91,-383.028"/>
</g>
<!-- User&#45;&gt;Follower -->
<g id="edge4" class="edge"><title>User&#45;&gt;Follower</title>
<path fill="none" stroke="#61fda1" d="M350.409,-418.779C354.954,-409.222 360.426,-400.18 367,-392 379.722,-376.169 393.4,-387.003 409,-374 426.175,-359.684 440.928,-340.44 452.693,-321.894"/>
<ellipse fill="none" stroke="#61fda1" cx="348.739" cy="-422.528" rx="4.00002" ry="4.00002"/>
<polygon fill="#61fda1" stroke="#61fda1" points="452.824,-321.68 461.89,-315.512 455.44,-317.419 458.055,-313.158 458.055,-313.158 458.055,-313.158 455.44,-317.419 454.22,-310.804 452.824,-321.68 452.824,-321.68"/>
<text text-anchor="middle" x="412.5" y="-396.3" font-family="Times,serif" font-size="14.00">active_followers</text>
</g>
<!-- User&#45;&gt;Follower -->
<g id="edge5" class="edge"><title>User&#45;&gt;Follower</title>
<path fill="none" stroke="#505fd8" d="M436.576,-448.856C444.67,-435.543 452.008,-421.814 458,-408 469.523,-381.435 475.94,-350.059 479.514,-323.13"/>
<ellipse fill="none" stroke="#505fd8" cx="434.387" cy="-452.38" rx="4.00002" ry="4.00002"/>
<polygon fill="#505fd8" stroke="#505fd8" points="479.533,-322.972 485.215,-313.593 480.141,-318.009 480.749,-313.046 480.749,-313.046 480.749,-313.046 480.141,-318.009 476.282,-312.499 479.533,-322.972 479.533,-322.972"/>
<text text-anchor="middle" x="512" y="-396.3" font-family="Times,serif" font-size="14.00">passive_followers</text>
</g>
<!-- User&#45;&gt;User -->
<g id="edge6" class="edge"><title>User&#45;&gt;User</title>
<path fill="none" stroke="#7c72e1" d="M441.915,-587.353C447.014,-584.737 450,-581.286 450,-577 450,-572.714 447.014,-569.263 441.915,-566.647"/>
<polygon fill="#7c72e1" stroke="#7c72e1" points="441.71,-587.426 430.78,-586.537 436.999,-589.102 432.288,-590.777 432.288,-590.777 432.288,-590.777 436.999,-589.102 433.795,-595.017 441.71,-587.426 441.71,-587.426"/>
<polygon fill="#7c72e1" stroke="#7c72e1" points="441.71,-566.574 433.795,-558.983 436.999,-564.898 432.288,-563.223 432.288,-563.223 432.288,-563.223 436.999,-564.898 430.78,-567.463 441.71,-566.574 441.71,-566.574"/>
<text text-anchor="middle" x="476.5" y="-573.3" font-family="Times,serif" font-size="14.00">following</text>
</g>
<!-- User&#45;&gt;User -->
<g id="edge7" class="edge"><title>User&#45;&gt;User</title>
<path fill="none" stroke="#cb7038" d="M442.42,-609.829C475.948,-608.357 503,-597.415 503,-577 503,-556.585 475.948,-545.643 442.42,-544.171"/>
<polygon fill="#cb7038" stroke="#cb7038" points="442.32,-609.83 432.25,-605.488 437.32,-609.909 432.321,-609.987 432.321,-609.987 432.321,-609.987 437.32,-609.909 432.392,-614.487 442.32,-609.83 442.32,-609.83"/>
<polygon fill="#cb7038" stroke="#cb7038" points="442.32,-544.17 432.392,-539.513 437.32,-544.091 432.321,-544.013 432.321,-544.013 432.321,-544.013 437.32,-544.091 432.25,-548.512 442.32,-544.17 442.32,-544.17"/>
<text text-anchor="middle" x="529" y="-573.3" font-family="Times,serif" font-size="14.00">followers</text>
</g>
</g>
</svg>
