<?xml version="1.0" encoding="UTF-8" standalone="no"?>
<!DOCTYPE svg PUBLIC "-//W3C//DTD SVG 1.1//EN"
 "http://www.w3.org/Graphics/SVG/1.1/DTD/svg11.dtd">
<!-- Generated by graphviz version 2.36.0 (20140111.2315)
 -->
<!-- Title: models_diagram Pages: 1 -->
<svg width="476pt" height="248pt"
 viewBox="0.00 0.00 476.00 248.00" xmlns="http://www.w3.org/2000/svg" xmlns:xlink="http://www.w3.org/1999/xlink">
<g id="graph0" class="graph" transform="scale(1 1) rotate(0) translate(4 244)">
<title>models_diagram</title>
<polygon fill="none" stroke="none" points="-4,4 -4,-244 472,-244 472,4 -4,4"/>
<!-- _diagram_info -->
<g id="node1" class="node"><title>_diagram_info</title>
<text text-anchor="start" x="8" y="-225.6" font-family="Times,serif" font-size="13.00">Models diagram</text>
<text text-anchor="start" x="8" y="-211.6" font-family="Times,serif" font-size="13.00">Date: May 22 2018 &#45; 08:09</text>
<text text-anchor="start" x="8" y="-197.6" font-family="Times,serif" font-size="13.00">Migration version: 20180521163048</text>
<text text-anchor="start" x="8" y="-183.6" font-family="Times,serif" font-size="13.00">Generated by RailRoady 1.5.3</text>
<text text-anchor="start" x="8" y="-169.6" font-family="Times,serif" font-size="13.00">http://railroady.prestonlee.com</text>
</g>
<!-- Like -->
<g id="node2" class="node"><title>Like</title>
<ellipse fill="none" stroke="black" cx="222" cy="-18" rx="27" ry="18"/>
<text text-anchor="middle" x="222" y="-14.3" font-family="Times,serif" font-size="14.00">Like</text>
</g>
<!-- Post -->
<g id="node3" class="node"><title>Post</title>
<ellipse fill="none" stroke="black" cx="257" cy="-92" rx="27" ry="18"/>
<text text-anchor="middle" x="257" y="-88.3" font-family="Times,serif" font-size="14.00">Post</text>
</g>
<!-- Post&#45;&gt;Like -->
<g id="edge1" class="edge"><title>Post&#45;&gt;Like</title>
<path fill="none" stroke="#48058e" d="M245.506,-67.3544C241.914,-59.9668 237.939,-51.7894 234.295,-44.2932"/>
<ellipse fill="none" stroke="#48058e" cx="247.309" cy="-71.0646" rx="4.00002" ry="4.00002"/>
<polygon fill="#48058e" stroke="#48058e" points="234.283,-44.2669 233.958,-33.3059 232.097,-39.7701 229.911,-35.2733 229.911,-35.2733 229.911,-35.2733 232.097,-39.7701 225.863,-37.2407 234.283,-44.2669 234.283,-44.2669"/>
</g>
<!-- Follower -->
<g id="node4" class="node"><title>Follower</title>
<ellipse fill="none" stroke="black" cx="359" cy="-92" rx="42.3701" ry="18"/>
<text text-anchor="middle" x="359" y="-88.3" font-family="Times,serif" font-size="14.00">Follower</text>
</g>
<!-- User -->
<g id="node5" class="node"><title>User</title>
<ellipse fill="none" stroke="black" cx="259" cy="-201" rx="26.949" ry="18"/>
<text text-anchor="middle" x="259" y="-197.3" font-family="Times,serif" font-size="14.00">User</text>
</g>
<!-- User&#45;&gt;Like -->
<g id="edge3" class="edge"><title>User&#45;&gt;Like</title>
<path fill="none" stroke="#996624" d="M246.067,-176.629C237.047,-158.935 225.8,-133.709 221,-110 217.825,-94.3182 220.855,-89.9993 221,-74 221.081,-65.0381 221.238,-55.2558 221.403,-46.4589"/>
<ellipse fill="none" stroke="#996624" cx="247.92" cy="-180.179" rx="4.00002" ry="4.00002"/>
<polygon fill="#996624" stroke="#996624" points="221.405,-46.3367 226.103,-36.4283 221.505,-41.3377 221.604,-36.3387 221.604,-36.3387 221.604,-36.3387 221.505,-41.3377 217.105,-36.2491 221.405,-46.3367 221.405,-46.3367"/>
</g>
<!-- User&#45;&gt;Post -->
<g id="edge2" class="edge"><title>User&#45;&gt;Post</title>
<path fill="none" stroke="#7eb447" d="M257.364,-174.822C256.813,-165.185 256.27,-154.087 256,-144 255.81,-136.891 255.898,-135.11 256,-128 256.036,-125.447 256.088,-122.79 256.148,-120.131"/>
<ellipse fill="none" stroke="#7eb447" cx="257.605" cy="-178.86" rx="4" ry="4"/>
<polygon fill="#7eb447" stroke="#7eb447" points="256.149,-120.084 260.912,-110.207 256.282,-115.086 256.414,-110.088 256.414,-110.088 256.414,-110.088 256.282,-115.086 251.916,-109.969 256.149,-120.084 256.149,-120.084"/>
</g>
<!-- User&#45;&gt;Follower -->
<g id="edge4" class="edge"><title>User&#45;&gt;Follower</title>
<path fill="none" stroke="#a09095" d="M259.424,-174.539C260.925,-159.47 265.118,-140.873 276,-128 285.343,-116.948 298.777,-109.313 312.123,-104.069"/>
<ellipse fill="none" stroke="#a09095" cx="259.107" cy="-178.944" rx="4" ry="4"/>
<polygon fill="#a09095" stroke="#a09095" points="312.338,-103.992 323.267,-104.9 317.052,-102.325 321.766,-100.658 321.766,-100.658 321.766,-100.658 317.052,-102.325 320.265,-96.4152 312.338,-103.992 312.338,-103.992"/>
<text text-anchor="middle" x="321.5" y="-132.3" font-family="Times,serif" font-size="14.00">active_followers</text>
</g>
<!-- User&#45;&gt;Follower -->
<g id="edge5" class="edge"><title>User&#45;&gt;Follower</title>
<path fill="none" stroke="#fa3b38" d="M292.719,-192.49C318.026,-184.894 350.962,-170.382 367,-144 371.435,-136.704 371.462,-127.776 369.746,-119.44"/>
<ellipse fill="none" stroke="#fa3b38" cx="288.652" cy="-193.635" rx="4.00001" ry="4.00001"/>
<polygon fill="#fa3b38" stroke="#fa3b38" points="369.715,-119.332 371.297,-108.481 368.342,-114.524 366.97,-109.716 366.97,-109.716 366.97,-109.716 368.342,-114.524 362.642,-110.952 369.715,-119.332 369.715,-119.332"/>
<text text-anchor="middle" x="419" y="-132.3" font-family="Times,serif" font-size="14.00">passive_followers</text>
</g>
<!-- User&#45;&gt;User -->
<g id="edge6" class="edge"><title>User&#45;&gt;User</title>
<path fill="none" stroke="#b2c0c2" d="M295.12,-206.426C300.422,-205.571 304,-203.763 304,-201 304,-198.237 300.422,-196.429 295.12,-195.574"/>
<polygon fill="#b2c0c2" stroke="#b2c0c2" points="294.882,-206.438 284.66,-202.47 289.889,-206.701 284.896,-206.963 284.896,-206.963 284.896,-206.963 289.889,-206.701 285.132,-211.457 294.882,-206.438 294.882,-206.438"/>
<polygon fill="#b2c0c2" stroke="#b2c0c2" points="294.882,-195.562 285.132,-190.543 289.889,-195.299 284.896,-195.037 284.896,-195.037 284.896,-195.037 289.889,-195.299 284.66,-199.53 294.882,-195.562 294.882,-195.562"/>
<text text-anchor="middle" x="330.5" y="-197.3" font-family="Times,serif" font-size="14.00">following</text>
</g>
<!-- User&#45;&gt;User -->
<g id="edge7" class="edge"><title>User&#45;&gt;User</title>
<path fill="none" stroke="#a2c4e2" d="M292.733,-211.54C321.98,-215.304 357,-211.79 357,-201 357,-190.21 321.98,-186.696 292.733,-190.46"/>
<polygon fill="#a2c4e2" stroke="#a2c4e2" points="292.566,-211.513 283.419,-205.464 287.631,-210.709 282.696,-209.906 282.696,-209.906 282.696,-209.906 287.631,-210.709 281.973,-214.347 292.566,-211.513 292.566,-211.513"/>
<polygon fill="#a2c4e2" stroke="#a2c4e2" points="292.566,-190.487 281.973,-187.653 287.631,-191.291 282.696,-192.094 282.696,-192.094 282.696,-192.094 287.631,-191.291 283.419,-196.536 292.566,-190.487 292.566,-190.487"/>
<text text-anchor="middle" x="383" y="-197.3" font-family="Times,serif" font-size="14.00">followers</text>
</g>
</g>
</svg>
